<?xml version="1.0" encoding="utf-8"?>
<!-- Generator: Adobe Illustrator 27.5.0, SVG Export Plug-In . SVG Version: 6.00 Build 0)  -->
<svg version="1.1" xmlns="http://www.w3.org/2000/svg" xmlns:xlink="http://www.w3.org/1999/xlink" x="0px" y="0px"
	 viewBox="150 100 210 210" style="enable-background:new 0 0 500 500;" xml:space="preserve">
<!-- <g id="BACKGROUND">
	<rect style="fill:#FFFFFF;" width="500" height="500"/>
</g> -->
<g id="OBJECTS">
	<g>
		<path style="fill:#DB3B60;" d="M152.18,195.853c4.071-2.203,9.737,1.59,8.958,6.232c-0.021,0.127-0.048,0.254-0.08,0.379
			c-0.405,1.598-1.715,2.9-3.276,3.429c-1.561,0.529-3.327,0.321-4.794-0.43c-3.157-1.616-4.629-6.779-1.509-9.159
			C151.703,196.135,151.937,195.984,152.18,195.853z"/>
		<path style="fill:#019EDF;" d="M208.807,105.593c1.037-1.098,2.545-1.781,4.385-1.617c8.64,0.77,4.278,14.176-3.085,10.241
			C206.524,112.302,206.561,107.971,208.807,105.593z"/>
		<path style="fill:#019EDF;" d="M297.831,130.903c3.034-1.23,7.053-0.031,7.788,4.093c0.328,1.842-0.498,3.806-1.954,4.981
			c-3.301,2.663-9.203,1.002-9.327-3.629C294.264,133.575,295.834,131.713,297.831,130.903z"/>
		<path style="fill:#A4BD46;" d="M301.475,156.474c-1.132-4.808,2.147-9.772,7.033-10.388c2.049-0.258,4.23,0.316,5.761,1.702
			c2.906,2.631,2.434,7.58,0.135,10.439C311.074,162.368,302.878,162.433,301.475,156.474z"/>
		<path style="fill:#A4BD46;" d="M339.341,134.094c4.184,4.618,11.884-1.951,6.376-6.135c-2.648-2.011-6.977-0.942-7.448,2.594
			C338.078,131.993,338.535,133.204,339.341,134.094z"/>
		<g>
			<path style="fill:#019EDF;" d="M187.837,268.148c-7.535-13.014-14.475-26.291-23.283-38.563
				c-2.463-3.432-6.93-7.497-7.263-11.964c-0.487-6.53,8.271-9.042,13.214-8.173c5.995,1.054,11.964,4.971,15.849,9.588
				c2.966,3.525,5.227,7.558,7.24,11.683c1.529,3.133,2.554,8.588,6.721,9.033c1.503,0.16,3.017-0.274,4.381-0.926
				c5.887-2.815,7.663-8.912,9.884-14.527c5.071-12.825,7.383-26.474,9.344-40.06c0.998-6.915,1.907-13.844,3.081-20.732
				c0.954-5.596,1.412-13.166,4.587-18.015c1.88-2.871,5.448-4.937,8.731-2.916c4.348,2.677,4.62,7.996,4.425,12.531
				c-0.345,8.011-1.445,15.96-1.734,23.961c-0.158,4.375-0.282,8.753-0.553,13.123c-0.228,3.672-1.506,8.153-0.39,11.751
				c0.517,1.666,1.8,3.211,3.517,3.521c2.54,0.458,4.763-1.87,5.74-4.259c3.882-9.493,6.514-19.715,11.391-28.81
				c2.752-5.131,4.658-10.682,7.577-15.728c2.708-4.68,7.148-11.648,13.532-10.37c5.282,1.057,6.455,5.628,5.703,10.241
				c-0.668,4.095-2.713,8.757-4.512,12.481c-3.941,8.16-7.556,16.474-10.989,24.86c-1.951,4.764-4.465,9.214-6.15,14.12
				c-1.064,3.099-0.987,7.109,1.698,8.99c7.002,4.902,14.624-8.146,17.418-12.725c6.185-10.138,11.843-20.616,18.485-30.479
				c2.494-3.704,8.95-10.415,13.806-6.597c6.139,4.83,0.391,13.645-2.207,18.79c-4.343,8.601-8.841,17.141-13.979,25.298
				c-2.693,4.276-5.606,8.372-8.634,12.414c-2.527,3.375-5.875,6.741-3.485,11.274c3.705,7.029,10.964,2.335,16.024,0.348
				c6.005-2.359,27.157-16.786,30.308-6.228c1.515,5.074-5.214,9.508-8.51,12.448c-4.407,3.93-9.274,7.296-14.154,10.602
				c-5.709,3.867-11.515,7.64-16.781,12.111c-6.477,5.5-10.942,12.667-16.664,18.843c-5.94,6.412-12.904,11.889-20.541,16.141
				c-4.813,2.679-10.276,4.712-15.821,4.967c-2.739,0.126-5.493-0.186-8.096-1.065c-2.693-0.909-4.603-3.085-7.073-4.102
				c-4.459-1.835-8.854-0.809-12.918-2.016C202.511,294.782,194.754,280.097,187.837,268.148z"/>
			<path style="fill:#019EDF;" d="M187.837,268.148c-7.535-13.014-14.475-26.291-23.283-38.563
				c-2.463-3.432-6.93-7.497-7.263-11.964c-0.487-6.53,8.271-9.042,13.214-8.173c5.995,1.054,11.964,4.971,15.849,9.588
				c2.966,3.525,5.227,7.558,7.24,11.683c1.529,3.133,2.554,8.588,6.721,9.033c1.503,0.16,3.017-0.274,4.381-0.926
				c5.887-2.815,7.663-8.912,9.884-14.527c5.071-12.825,7.383-26.474,9.344-40.06c0.998-6.915,1.907-13.844,3.081-20.732
				c0.954-5.596,1.412-13.166,4.587-18.015c1.88-2.871,5.448-4.937,8.731-2.916c4.348,2.677,4.62,7.996,4.425,12.531
				c-0.345,8.011-1.445,15.96-1.734,23.961c-0.158,4.375-0.282,8.753-0.553,13.123c-0.228,3.672-1.506,8.153-0.39,11.751
				c0.517,1.666,1.8,3.211,3.517,3.521c2.54,0.458,4.763-1.87,5.74-4.259c3.882-9.493,6.514-19.715,11.391-28.81
				c2.752-5.131,4.658-10.682,7.577-15.728c2.708-4.68,7.148-11.648,13.532-10.37c5.282,1.057,6.455,5.628,5.703,10.241
				c-0.668,4.095-2.713,8.757-4.512,12.481c-3.941,8.16-7.556,16.474-10.989,24.86c-1.951,4.764-4.465,9.214-6.15,14.12
				c-1.064,3.099-0.987,7.109,1.698,8.99c7.002,4.902,14.624-8.146,17.418-12.725c6.185-10.138,11.843-20.616,18.485-30.479
				c2.494-3.704,8.95-10.415,13.806-6.597c6.139,4.83,0.391,13.645-2.207,18.79c-4.343,8.601-8.841,17.141-13.979,25.298
				c-2.693,4.276-5.606,8.372-8.634,12.414c-2.527,3.375-5.875,6.741-3.485,11.274c3.705,7.029,10.964,2.335,16.024,0.348
				c6.005-2.359,27.157-16.786,30.308-6.228c1.515,5.074-5.214,9.508-8.51,12.448c-4.407,3.93-9.274,7.296-14.154,10.602
				c-5.709,3.867-11.515,7.64-16.781,12.111c-6.477,5.5-10.942,12.667-16.664,18.843c-5.94,6.412-12.904,11.889-20.541,16.141
				c-4.813,2.679-10.276,4.712-15.821,4.967c-2.739,0.126-5.493-0.186-8.096-1.065c-2.693-0.909-4.603-3.085-7.073-4.102
				c-4.459-1.835-8.854-0.809-12.918-2.016C202.511,294.782,194.754,280.097,187.837,268.148z"/>
			<path style="fill:#0174AD;" d="M206.453,237.801c-0.544,0.375-1.122,0.723-1.757,1.026c-1.364,0.652-2.878,1.087-4.381,0.926
				c-4.167-0.445-5.192-5.9-6.721-9.033c-2.014-4.125-4.274-8.158-7.24-11.683c-3.885-4.617-9.854-8.534-15.849-9.588
				c-0.358-0.063-0.74-0.103-1.133-0.13c0.918,0.303,1.799,0.713,2.608,1.259c2.255,1.521,3.838,3.859,5.042,6.299
				c2.453,4.971,3.539,10.52,5.9,15.536c2.362,5.015,6.559,9.743,12.067,10.372C199.297,243.276,203.574,241.071,206.453,237.801z"
				/>
			<path style="fill:#FFFFFF;" d="M193.529,258.303c-2.71-6.695-7.118-12.089-11.998-17.324c-2.951-3.165-22.496-22.318-13.7-26.267
				c1.374-0.617,0.684-2.889-0.71-2.263c-8.474,3.805-1.005,14.374,2.661,19.041c7.217,9.189,16.99,16.42,21.484,27.522
				C191.834,260.416,194.103,259.722,193.529,258.303z"/>
			<path style="fill:#0174AD;" d="M247.238,207.376c-0.528,0.147-1.08,0.191-1.65,0.088c-1.717-0.31-3-1.855-3.517-3.521
				c-1.117-3.598,0.162-8.079,0.39-11.751c0.271-4.37,0.395-8.748,0.553-13.123c0.289-8.001,1.389-15.95,1.734-23.961
				c0.194-4.505-0.078-9.781-4.344-12.475c0.051,0.145,0.102,0.289,0.146,0.435c0.92,3.03,0.627,6.277,0.326,9.429
				c-1.163,12.165-2.327,24.33-3.49,36.495c-0.495,5.175-1.122,11.904,2.072,16.439c1.095,1.555,2.852,2.695,4.751,2.796
				C245.273,208.284,246.354,207.966,247.238,207.376z"/>
			<path style="fill:#0174AD;" d="M271.526,219.905c-0.652-0.168-1.303-0.465-1.948-0.917c-2.685-1.881-2.762-5.891-1.698-8.99
				c1.685-4.906,4.199-9.356,6.15-14.12c3.434-8.385,7.048-16.699,10.989-24.86c1.798-3.723,3.844-8.386,4.512-12.481
				c0.752-4.613-0.42-9.184-5.703-10.241c-0.819-0.164-1.606-0.188-2.361-0.103c1.743,0.777,3.208,1.972,4.084,3.707
				c2.108,4.176-0.203,9.125-2.409,13.25c-6.09,11.392-11.638,23.073-16.62,34.991c-1.743,4.171-3.448,8.703-2.429,13.107
				C264.898,216.724,268.185,219.761,271.526,219.905z"/>
			<path style="fill:#0174AD;" d="M290.981,236.963c-2.389-4.533,0.958-7.899,3.485-11.273c3.028-4.043,5.941-8.139,8.634-12.415
				c5.138-8.157,9.636-16.697,13.979-25.298c2.598-5.145,8.347-13.96,2.207-18.79c-0.546-0.429-1.168-0.774-1.842-0.934
				c0.682,0.999,1.608,2.031,1.764,3.261c0.638,5.019-3.165,9.79-5.622,13.817c-3.155,5.172-6.742,10.057-10.052,15.128
				c-3.477,5.328-7.678,10.205-11.193,15.528c-2.951,4.469-5.778,9.466-5.421,14.81c0.271,4.057,3.215,8.085,6.888,9.217
				C292.74,239.443,291.778,238.476,290.981,236.963z"/>
			<path style="fill:#0174AD;" d="M323.47,229.26c3.516,0.161,6.377,2.331,4.433,6.024c-0.794,1.508-2.154,2.626-3.509,3.658
				c-7.747,5.895-16.649,9.976-25.228,14.392c-7.734,3.982-14.885,9.101-21.119,15.17c-6.337,6.169-11.808,13.348-19.124,18.317
				c-7.316,4.969-17.007,6.577-24.623,2.081c-7.676,5.203-17.421,7.188-26.543,5.59c2.694,1.964,5.666,3.53,8.997,4.519
				c4.064,1.206,8.46,0.181,12.918,2.016c2.47,1.016,4.38,3.193,7.073,4.102c2.604,0.879,5.357,1.191,8.096,1.065
				c5.545-0.255,11.008-2.288,15.821-4.967c7.637-4.251,14.601-9.729,20.541-16.141c5.722-6.176,10.187-13.344,16.664-18.843
				c5.265-4.471,11.071-8.244,16.781-12.111c4.88-3.306,9.747-6.672,14.154-10.602c3.297-2.94,10.025-7.373,8.51-12.448
				C335.757,225.87,329.812,226.751,323.47,229.26z"/>
			<path style="fill:#0174AD;" d="M238.219,280.788c4.366-6.969,5.317-15.971,2.502-23.698c-2.815-7.727-9.333-14.009-17.159-16.536
				c5.976-4.283,15.098-2.313,20.484,2.691c5.387,5.004,7.331,13.063,5.895,20.273C248.506,270.728,243.809,276.013,238.219,280.788
				z"/>
			<path style="fill:#FFFFFF;" d="M268.839,170.06c-2.569,7.036-5.137,14.071-7.706,21.107c-2.199,6.024-3.821,15.562-9.843,18.921
				c-1.709,0.953-0.178,3.579,1.534,2.624c5.595-3.12,7.175-9.604,9.23-15.231l9.716-26.613
				C272.442,169.028,269.505,168.234,268.839,170.06z"/>
			<path style="fill:#FFFFFF;" d="M280.065,151.645c-4.485,1.87-7.394,5.956-7.648,10.817c-0.102,1.957,2.938,1.861,3.039-0.08
				c0.177-3.399,2.344-6.516,5.494-7.829C282.739,153.807,281.872,150.891,280.065,151.645z"/>
			<path style="fill:#FFFFFF;" d="M290.943,206.409c-1.933,3.276-3.866,6.551-5.799,9.827c-2.042,3.46-4.584,8.952-9.518,7.887
				c-1.907-0.412-2.722,2.517-0.808,2.931c4.073,0.879,7.375-1.057,9.804-4.27c3.443-4.554,6.047-9.928,8.945-14.841
				C294.564,206.255,291.937,204.724,290.943,206.409z"/>
			<path style="fill:#FFFFFF;" d="M299.795,191.361c-2.096,3.211-4.191,6.423-6.287,9.634c-1.072,1.643,1.558,3.168,2.625,1.534
				c2.096-3.211,4.191-6.423,6.287-9.634C303.492,191.252,300.861,189.727,299.795,191.361z"/>
			<path style="fill:#FFFFFF;" d="M312.627,171.203c-2.773,1.33-4.858,3.671-5.788,6.611c-0.589,1.861,2.26,2.921,2.852,1.052
				c0.697-2.203,2.118-3.9,4.209-4.903C315.662,173.118,314.394,170.356,312.627,171.203z"/>
			<path style="fill:#FFFFFF;" d="M319.346,234.148c-8.046,4.179-18.066,11.659-27.446,11.312c-1.956-0.072-1.953,2.967,0,3.039
				c10.189,0.376,20.315-7.226,28.98-11.727C322.617,235.87,321.082,233.246,319.346,234.148z"/>
			<path style="fill:#FFFFFF;" d="M217.368,286.954c-10.183-4.156-18.393-12.801-22.071-23.156c-0.537-1.511-2.962-0.86-2.42,0.667
				c4.001,11.264,12.765,20.395,23.823,24.908C218.195,289.984,218.846,287.557,217.368,286.954z"/>
			<path style="fill:#FFFFFF;" d="M214.333,273.885c-3.167-1.618-5.626-4.016-7.313-7.123c-0.313-0.577-1.16-0.809-1.717-0.45
				c-0.586,0.378-0.785,1.099-0.45,1.717c1.852,3.413,4.754,6.256,8.213,8.023c0.584,0.298,1.388,0.172,1.717-0.45
				C215.086,275.029,214.957,274.204,214.333,273.885z"/>
			<path style="fill:#FFFFFF;" d="M239.248,147.625c-0.02-0.117-0.057-0.23-0.11-0.334c-0.247-0.484-0.775-0.778-1.312-0.86
				c-0.932-0.143-2.19,0.133-3.011,0.585c-1.112,0.612-2.046,1.607-2.595,2.752c-1.921,4.011-1.975,9.578-2.488,13.945
				c-0.214,1.818,2.639,1.803,2.851,0c0.297-2.521,0.489-5.07,0.772-7.607c0.235-2.103,0.705-4.251,1.936-5.973
				c0.401-0.561,0.929-1.059,1.629-1.179c0.61-0.105,1.34,0.137,1.893-0.214C239.173,148.512,239.32,148.048,239.248,147.625z"/>
			<path style="fill:#FFFFFF;" d="M228.502,174.65c-1.08,16.111-3.695,31.968-7.822,47.576c-0.469,1.775,2.28,2.533,2.749,0.758
				c4.193-15.856,6.827-31.971,7.924-48.333C231.476,172.819,228.624,172.826,228.502,174.65z"/>
		</g>
		<g>
			<path style="fill:#A4BD46;" d="M163.679,190.238c-7.234-8.139-11.433-18.814-12.189-29.676
				c-0.713-10.242,1.288-21.4,6.215-30.597c5.182-9.673,16.501-19.431,28.275-16.563c5.044,1.229,9.118,5.744,9.822,10.888
				c0.61,4.455-1.098,8.867-2.815,13.022c-2.852,6.902-5.837,13.806-7.435,21.101c-1.598,7.295-1.73,15.113,1.046,22.046
				c3.727,9.308,12.221,16.05,16.092,25.298c1.131,2.703,2.361,5.696,2.75,8.611c0.617,4.624-3.649,7.155-7.575,4.804
				c-2.377-1.424-3.867-3.911-5.648-6.033C184.692,204.173,171.455,198.987,163.679,190.238z"/>
			<path style="fill:#869C39;" d="M202.691,205.757c-3.871-9.249-12.365-15.991-16.092-25.298
				c-2.776-6.933-2.644-14.751-1.046-22.046c1.597-7.295,4.582-14.199,7.435-21.101c1.717-4.155,3.425-8.568,2.815-13.022
				c-0.704-5.144-4.778-9.659-9.822-10.887c-0.339-0.082-0.677-0.152-1.015-0.214c0.302,0.261,0.593,0.536,0.854,0.839
				c3.088,3.582,3.35,8.956,1.81,13.427c-1.54,4.471-4.608,8.231-7.714,11.798c-3.105,3.566-6.355,7.113-8.382,11.386
				c-4.405,9.29-2.219,20.602,2.936,29.498c5.154,8.896,12.916,15.925,20.346,23.031c1.812,1.733,3.661,3.55,4.609,5.871
				c0.948,2.321,0.762,5.297-1.109,6.967c-0.79,0.705-1.78,1.069-2.822,1.182c0.707,0.762,1.476,1.449,2.371,1.986
				c3.926,2.352,8.193-0.18,7.575-4.804C205.052,211.453,203.822,208.46,202.691,205.757z"/>
			<path style="fill:#FFFFFF;" d="M173.19,185.192c-3.301-3.337-5.759-7.424-7.141-11.911c-0.574-1.864-3.509-1.069-2.931,0.808
				c1.535,4.984,4.254,9.544,7.923,13.253C172.418,188.734,174.567,186.585,173.19,185.192z"/>
			<path style="fill:#FFFFFF;" d="M175.31,122.87c-11.876,8.283-18.211,23.056-16.116,37.365c0.282,1.928,3.211,1.109,2.931-0.808
				c-1.882-12.859,4.075-26.508,14.72-33.933C178.437,124.384,176.919,121.748,175.31,122.87z"/>
		</g>
		<g>
			<path style="fill:#E6C037;" d="M213.914,184.888c-0.026-1.254-0.269-2.527-0.447-3.736c-0.498-3.389-0.54-6.848-0.2-10.255
				c0.672-6.734,2.837-13.63,7.137-18.952c5.261-6.509,17.36-13.164,13.723-23.377c-3.953-11.101-18.379-10.276-26.226-4.161
				c-6.102,4.754-9.618,12.187-11.305,19.736c-3.074,13.76-0.529,28.69,6.928,40.656c1.405,2.255,4.503,6.774,7.696,5.348
				c1.299-0.58,2.171-1.888,2.502-3.271C213.879,186.227,213.928,185.56,213.914,184.888z"/>
			<path style="fill:#CF991D;" d="M234.128,128.569c-3.211-9.018-13.334-10.166-21.227-7c7.728-1.594,14.01,1.777,13.721,8.284
				c-0.258,5.818-5.229,9.355-9.48,12.135c-5.653,3.697-9.415,8.478-10.862,15.213c-1.201,5.588-0.688,11.426,0.568,17.001
				c0.682,3.027,1.102,7.105-1.735,8.361c-0.954,0.423-1.957,0.345-2.917-0.023c0.424,0.764,0.868,1.518,1.33,2.26
				c1.405,2.255,4.503,6.774,7.696,5.348c1.299-0.58,2.171-1.888,2.502-3.271c0.155-0.649,0.204-1.316,0.191-1.989
				c-0.026-1.254-0.269-2.527-0.447-3.736c-0.498-3.389-0.54-6.848-0.2-10.255c0.672-6.734,2.837-13.63,7.137-18.952
				C225.665,145.436,237.764,138.781,234.128,128.569z"/>
			<path style="fill:#FFFFFF;" d="M214.806,128.737c-0.442-0.685-1.35-0.983-2.079-0.545c-3.219,1.935-5.933,4.66-7.854,7.888
				c-0.407,0.684-0.176,1.698,0.545,2.079c0.733,0.387,1.645,0.185,2.079-0.545c0.226-0.379,0.461-0.752,0.709-1.117
				c0.113-0.166,0.228-0.33,0.346-0.492c0.059-0.081,0.118-0.162,0.178-0.242c0.019-0.025,0.033-0.045,0.047-0.064
				c0.507-0.674,1.084-1.306,1.678-1.904c0.596-0.599,1.232-1.145,1.885-1.68c0.01-0.008,0.003-0.003,0.009-0.008
				c0.009-0.007,0.005-0.003,0.017-0.012c0.096-0.072,0.192-0.144,0.29-0.215c0.162-0.118,0.326-0.234,0.491-0.348
				c0.364-0.25,0.736-0.487,1.114-0.715C214.942,130.407,215.255,129.433,214.806,128.737z"/>
		</g>
		<g>
			<path style="fill:#DB3B60;" d="M257.922,118.426c3.122-4.47,7.302-8.335,12.185-11.279c8.497-5.123,18.588-7.287,28.507-7.062
				c10.448,0.237,18.902,3.541,26.248,11.109c2.592,2.67,11.1,16.054,2.915,16.886c-2.236,0.227-4.054-1.637-5.708-3.159
				c-9.092-8.364-24.802-10.371-33.338-0.223c-3.475,4.132-5.603,9.197-8.272,13.89c-2.669,4.693-6.174,9.268-11.182,11.286
				c-8.723,3.516-16.511-1.277-17.298-10.299C251.323,132.061,253.627,124.576,257.922,118.426z"/>
			<path style="fill:#A82745;" d="M328.701,120.002c-0.77,1.477-2.519,2.548-4.115,2.072c-1.132-0.337-1.924-1.323-2.707-2.208
				c-4.957-5.607-12.411-8.918-19.894-8.838c-7.483,0.08-14.865,3.551-19.7,9.262c-3.966,4.685-6.158,10.592-9.506,15.737
				c-3.348,5.145-8.614,9.818-14.748,9.595c-1.692-0.062-3.326-0.525-4.826-1.28c2.648,5.805,9.055,8.362,16.073,5.533
				c5.008-2.019,8.513-6.593,11.182-11.286c2.669-4.693,4.796-9.759,8.272-13.89c8.536-10.148,24.245-8.141,33.338,0.223
				c1.654,1.522,3.472,3.386,5.708,3.159c4.955-0.504,3.791-5.606,1.526-10.148C329.219,118.654,329.038,119.356,328.701,120.002z"
				/>
			<path style="fill:#FFFFFF;" d="M279.245,108.864c-13.073,4.013-22.139,16.108-22.299,29.793c-0.023,1.957,3.017,1.958,3.039,0
				c0.144-12.316,8.29-23.247,20.067-26.862C281.917,111.222,281.122,108.287,279.245,108.864z"/>
			<path style="fill:#FFFFFF;" d="M306.961,105.985c-5.117-1.544-10.599-1.627-15.767-0.268c-1.89,0.497-1.089,3.43,0.808,2.931
				c4.661-1.226,9.538-1.124,14.151,0.267C308.029,109.482,308.831,106.549,306.961,105.985z"/>
		</g>
		<g>
			<path style="fill:#E6C037;" d="M328.765,197.75c2.786-5.82,4.166-12.094,2.407-18.658c-1.849-6.902-6.861-13.018-7.089-20.342
				c-0.318-10.219,8.032-19.132,18.519-16.844c7.047,1.537,12.211,7.451,14.903,13.816c4.758,11.25,1.827,25.602-3.44,36.178
				c-3.875,7.782-9.49,14.602-16.038,20.287c-4.09,3.551-8.195,7.451-13.109,9.85c-1.754,0.856-5.088,2.373-7.113,1.72
				c-6.781-2.186-0.491-9.298,1.677-12.011C322.881,207.494,326.351,202.793,328.765,197.75z"/>
			<path style="fill:#CF991D;" d="M342.603,141.906c-4.449-0.971-8.51,0.08-11.691,2.386c2.971-0.653,6.27-0.266,8.979,1.148
				c5.209,2.719,8.439,8.207,10.215,13.808c3.146,9.923,2.463,20.947-1.552,30.552c-4.015,9.604-11.279,17.757-20.174,23.165
				c-1.808,1.099-3.746,2.11-5.853,2.309c-1.681,0.158-3.486-0.318-4.711-1.43c-2.501,3.279-5.425,8.167-0.008,9.914
				c2.025,0.653,5.359-0.864,7.113-1.72c4.913-2.399,9.019-6.299,13.109-9.85c6.548-5.686,12.163-12.505,16.038-20.287
				c5.267-10.576,8.198-24.928,3.44-36.178C354.814,149.357,349.65,143.443,342.603,141.906z"/>
			<path style="fill:#FFFFFF;" d="M333.821,192.643c-0.848,2.247-1.978,4.339-3.353,6.306c-0.749,1.071,1.007,2.085,1.75,1.023
				c1.477-2.112,2.647-4.38,3.558-6.79C336.237,191.96,334.279,191.432,333.821,192.643z"/>
			<path style="fill:#FFFFFF;" d="M336.121,147.186c-0.036-0.215-0.18-0.438-0.477-0.669c-0.418-0.324-0.834-0.263-1.294-0.063
				c-1.998,0.867-3.899,4.197-4.591,6.171c-4.226,12.048,10.64,22.35,5.381,34.231c-0.523,1.182,1.222,2.214,1.75,1.023
				c2.598-5.87,0.979-11.525-1.513-17.188c-2.105-4.785-4.97-9.827-4.134-15.248c0.056-0.362,0.127-0.721,0.215-1.076
				c0.574-2.311,1.87-4.422,3.776-5.868C335.71,148.136,336.206,147.686,336.121,147.186z"/>
		</g>
	</g>
</g>
</svg>
